<mxfile host="Electron" agent="Mozilla/5.0 (Windows NT 10.0; Win64; x64) AppleWebKit/537.36 (KHTML, like Gecko) draw.io/26.2.2 Chrome/134.0.6998.178 Electron/35.1.2 Safari/537.36" version="26.2.2">
  <diagram name="Seite-1" id="lDPX8A1a6DrfphTYEK8i">
    <mxGraphModel dx="1030" dy="619" grid="1" gridSize="10" guides="1" tooltips="1" connect="1" arrows="1" fold="1" page="1" pageScale="1" pageWidth="827" pageHeight="1169" math="0" shadow="0">
      <root>
        <mxCell id="0" />
        <mxCell id="1" parent="0" />
        <mxCell id="sMKW2bcsABy4EJqkGroy-1" value="&lt;b&gt;&lt;font style=&quot;font-size: 13px;&quot;&gt;110C.29FC.70A02&lt;/font&gt;&lt;/b&gt;" style="shape=mxgraph.cisco.computers_and_peripherals.pc;sketch=0;html=1;pointerEvents=1;dashed=0;fillColor=#036897;strokeColor=#ffffff;strokeWidth=2;verticalLabelPosition=bottom;verticalAlign=top;align=center;outlineConnect=0;" vertex="1" parent="1">
          <mxGeometry x="200" y="410" width="78" height="70" as="geometry" />
        </mxCell>
        <mxCell id="sMKW2bcsABy4EJqkGroy-2" value="&lt;font style=&quot;font-size: 13px;&quot;&gt;&lt;b&gt;110C.29FC.70A03&lt;/b&gt;&lt;/font&gt;" style="shape=mxgraph.cisco.computers_and_peripherals.pc;sketch=0;html=1;pointerEvents=1;dashed=0;fillColor=#036897;strokeColor=#ffffff;strokeWidth=2;verticalLabelPosition=bottom;verticalAlign=top;align=center;outlineConnect=0;" vertex="1" parent="1">
          <mxGeometry x="560" y="410" width="78" height="70" as="geometry" />
        </mxCell>
        <mxCell id="sMKW2bcsABy4EJqkGroy-3" value="&lt;font style=&quot;font-size: 13px;&quot;&gt;&lt;b&gt;110C.29FC.70A01&lt;/b&gt;&lt;/font&gt;" style="shape=mxgraph.cisco.computers_and_peripherals.pc;sketch=0;html=1;pointerEvents=1;dashed=0;fillColor=#036897;strokeColor=#ffffff;strokeWidth=2;verticalLabelPosition=bottom;verticalAlign=top;align=center;outlineConnect=0;" vertex="1" parent="1">
          <mxGeometry x="40" y="410" width="78" height="70" as="geometry" />
        </mxCell>
        <mxCell id="sMKW2bcsABy4EJqkGroy-4" value="&lt;font style=&quot;font-size: 13px;&quot;&gt;&lt;b&gt;110C.29FC.70A04&lt;/b&gt;&lt;/font&gt;" style="shape=mxgraph.cisco.computers_and_peripherals.pc;sketch=0;html=1;pointerEvents=1;dashed=0;fillColor=#036897;strokeColor=#ffffff;strokeWidth=2;verticalLabelPosition=bottom;verticalAlign=top;align=center;outlineConnect=0;" vertex="1" parent="1">
          <mxGeometry x="720" y="410" width="78" height="70" as="geometry" />
        </mxCell>
        <mxCell id="sMKW2bcsABy4EJqkGroy-5" value="" style="shape=mxgraph.cisco.switches.workgroup_switch;sketch=0;html=1;pointerEvents=1;dashed=0;fillColor=#036897;strokeColor=#ffffff;strokeWidth=2;verticalLabelPosition=bottom;verticalAlign=top;align=center;outlineConnect=0;" vertex="1" parent="1">
          <mxGeometry x="638" y="270" width="101" height="50" as="geometry" />
        </mxCell>
        <mxCell id="sMKW2bcsABy4EJqkGroy-6" value="" style="shape=mxgraph.cisco.switches.workgroup_switch;sketch=0;html=1;pointerEvents=1;dashed=0;fillColor=#036897;strokeColor=#ffffff;strokeWidth=2;verticalLabelPosition=bottom;verticalAlign=top;align=center;outlineConnect=0;" vertex="1" parent="1">
          <mxGeometry x="118" y="270" width="101" height="50" as="geometry" />
        </mxCell>
        <mxCell id="sMKW2bcsABy4EJqkGroy-7" value="" style="endArrow=none;html=1;rounded=0;exitX=0.5;exitY=0;exitDx=0;exitDy=0;exitPerimeter=0;entryX=0.87;entryY=0.74;entryDx=0;entryDy=0;entryPerimeter=0;strokeWidth=2;" edge="1" parent="1" source="sMKW2bcsABy4EJqkGroy-19" target="sMKW2bcsABy4EJqkGroy-6">
          <mxGeometry width="50" height="50" relative="1" as="geometry">
            <mxPoint x="390" y="380" as="sourcePoint" />
            <mxPoint x="440" y="330" as="targetPoint" />
          </mxGeometry>
        </mxCell>
        <mxCell id="sMKW2bcsABy4EJqkGroy-8" value="" style="endArrow=none;html=1;rounded=0;exitX=0.5;exitY=0;exitDx=0;exitDy=0;exitPerimeter=0;entryX=0;entryY=0.98;entryDx=0;entryDy=0;entryPerimeter=0;strokeWidth=2;" edge="1" parent="1" source="sMKW2bcsABy4EJqkGroy-12" target="sMKW2bcsABy4EJqkGroy-6">
          <mxGeometry width="50" height="50" relative="1" as="geometry">
            <mxPoint x="203.5" y="451" as="sourcePoint" />
            <mxPoint x="133.5" y="360" as="targetPoint" />
          </mxGeometry>
        </mxCell>
        <mxCell id="sMKW2bcsABy4EJqkGroy-9" value="" style="endArrow=none;html=1;rounded=0;exitX=0.5;exitY=0;exitDx=0;exitDy=0;exitPerimeter=0;entryX=0;entryY=0.98;entryDx=0;entryDy=0;entryPerimeter=0;strokeWidth=2;" edge="1" parent="1" source="sMKW2bcsABy4EJqkGroy-22" target="sMKW2bcsABy4EJqkGroy-5">
          <mxGeometry width="50" height="50" relative="1" as="geometry">
            <mxPoint x="390" y="380" as="sourcePoint" />
            <mxPoint x="440" y="330" as="targetPoint" />
          </mxGeometry>
        </mxCell>
        <mxCell id="sMKW2bcsABy4EJqkGroy-10" value="" style="endArrow=none;html=1;rounded=0;exitX=0.5;exitY=0;exitDx=0;exitDy=0;exitPerimeter=0;entryX=0.87;entryY=0.74;entryDx=0;entryDy=0;entryPerimeter=0;strokeWidth=2;" edge="1" parent="1" source="sMKW2bcsABy4EJqkGroy-23" target="sMKW2bcsABy4EJqkGroy-5">
          <mxGeometry width="50" height="50" relative="1" as="geometry">
            <mxPoint x="690" y="451" as="sourcePoint" />
            <mxPoint x="710" y="360" as="targetPoint" />
          </mxGeometry>
        </mxCell>
        <mxCell id="sMKW2bcsABy4EJqkGroy-11" value="" style="endArrow=none;html=1;rounded=0;exitX=0.98;exitY=0.5;exitDx=0;exitDy=0;exitPerimeter=0;entryX=0;entryY=0.5;entryDx=0;entryDy=0;entryPerimeter=0;strokeWidth=2;" edge="1" parent="1" source="sMKW2bcsABy4EJqkGroy-6" target="sMKW2bcsABy4EJqkGroy-5">
          <mxGeometry width="50" height="50" relative="1" as="geometry">
            <mxPoint x="390" y="380" as="sourcePoint" />
            <mxPoint x="440" y="330" as="targetPoint" />
          </mxGeometry>
        </mxCell>
        <mxCell id="sMKW2bcsABy4EJqkGroy-20" value="" style="endArrow=none;html=1;rounded=0;exitX=0.5;exitY=0;exitDx=0;exitDy=0;exitPerimeter=0;entryX=0.87;entryY=0.74;entryDx=0;entryDy=0;entryPerimeter=0;strokeWidth=2;" edge="1" parent="1" source="sMKW2bcsABy4EJqkGroy-1" target="sMKW2bcsABy4EJqkGroy-19">
          <mxGeometry width="50" height="50" relative="1" as="geometry">
            <mxPoint x="239" y="410" as="sourcePoint" />
            <mxPoint x="206" y="307" as="targetPoint" />
          </mxGeometry>
        </mxCell>
        <mxCell id="sMKW2bcsABy4EJqkGroy-19" value="&lt;div&gt;USB Network Interface Card&lt;/div&gt;000C.29FC.70A6" style="rounded=1;whiteSpace=wrap;html=1;fillColor=default;strokeWidth=2;" vertex="1" parent="1">
          <mxGeometry x="170" y="330" width="120" height="50" as="geometry" />
        </mxCell>
        <mxCell id="sMKW2bcsABy4EJqkGroy-21" value="" style="endArrow=none;html=1;rounded=0;exitX=0.5;exitY=0;exitDx=0;exitDy=0;exitPerimeter=0;entryX=0.25;entryY=1;entryDx=0;entryDy=0;strokeWidth=2;" edge="1" parent="1" source="sMKW2bcsABy4EJqkGroy-3" target="sMKW2bcsABy4EJqkGroy-12">
          <mxGeometry width="50" height="50" relative="1" as="geometry">
            <mxPoint x="79" y="410" as="sourcePoint" />
            <mxPoint x="118" y="319" as="targetPoint" />
          </mxGeometry>
        </mxCell>
        <mxCell id="sMKW2bcsABy4EJqkGroy-12" value="&lt;div&gt;USB Network Interface Card&lt;/div&gt;000C.29FC.70A5" style="rounded=1;whiteSpace=wrap;html=1;fillColor=default;strokeWidth=2;" vertex="1" parent="1">
          <mxGeometry x="30" y="330" width="120" height="50" as="geometry" />
        </mxCell>
        <mxCell id="sMKW2bcsABy4EJqkGroy-24" value="" style="endArrow=none;html=1;rounded=0;exitX=0.5;exitY=0;exitDx=0;exitDy=0;exitPerimeter=0;entryX=0.87;entryY=0.74;entryDx=0;entryDy=0;entryPerimeter=0;strokeWidth=2;" edge="1" parent="1" source="sMKW2bcsABy4EJqkGroy-4" target="sMKW2bcsABy4EJqkGroy-23">
          <mxGeometry width="50" height="50" relative="1" as="geometry">
            <mxPoint x="759" y="410" as="sourcePoint" />
            <mxPoint x="726" y="307" as="targetPoint" />
          </mxGeometry>
        </mxCell>
        <mxCell id="sMKW2bcsABy4EJqkGroy-23" value="&lt;div&gt;USB Network Interface Card&lt;/div&gt;000C.29FC.70A8" style="rounded=1;whiteSpace=wrap;html=1;fillColor=default;strokeWidth=2;" vertex="1" parent="1">
          <mxGeometry x="690" y="330" width="120" height="50" as="geometry" />
        </mxCell>
        <mxCell id="sMKW2bcsABy4EJqkGroy-25" value="" style="endArrow=none;html=1;rounded=0;exitX=0.5;exitY=0;exitDx=0;exitDy=0;exitPerimeter=0;entryX=0.25;entryY=1;entryDx=0;entryDy=0;strokeWidth=2;" edge="1" parent="1" source="sMKW2bcsABy4EJqkGroy-2" target="sMKW2bcsABy4EJqkGroy-22">
          <mxGeometry width="50" height="50" relative="1" as="geometry">
            <mxPoint x="599" y="410" as="sourcePoint" />
            <mxPoint x="638" y="319" as="targetPoint" />
          </mxGeometry>
        </mxCell>
        <mxCell id="sMKW2bcsABy4EJqkGroy-22" value="&lt;div&gt;USB Network Interface Card&lt;/div&gt;000C.29FC.70A7" style="rounded=1;whiteSpace=wrap;html=1;fillColor=default;strokeWidth=2;" vertex="1" parent="1">
          <mxGeometry x="550" y="330" width="120" height="50" as="geometry" />
        </mxCell>
      </root>
    </mxGraphModel>
  </diagram>
</mxfile>
